<?xml version="1.0" encoding="UTF-8" standalone="no"?>
<svg
   width="162"
   height="162"
   viewBox="0 0 162 162"
   fill="none"
   role="img"
   aria-labelledby="title desc"
   version="1.1"
   id="svg10"
   sodipodi:docname="stakeholder_logo.svg"
   inkscape:version="1.3 (0e150ed6c4, 2023-07-21)"
   xmlns:inkscape="http://www.inkscape.org/namespaces/inkscape"
   xmlns:sodipodi="http://sodipodi.sourceforge.net/DTD/sodipodi-0.dtd"
   xmlns="http://www.w3.org/2000/svg"
   xmlns:svg="http://www.w3.org/2000/svg"
   xmlns:rdf="http://www.w3.org/1999/02/22-rdf-syntax-ns#"
   xmlns:cc="http://creativecommons.org/ns#"
   xmlns:dc="http://purl.org/dc/elements/1.1/">
  <defs
     id="defs10" />
  <sodipodi:namedview
     id="namedview10"
     pagecolor="#ffffff"
     bordercolor="#000000"
     borderopacity="0.25"
     inkscape:showpageshadow="2"
     inkscape:pageopacity="0.0"
     inkscape:pagecheckerboard="0"
     inkscape:deskcolor="#d1d1d1"
     inkscape:zoom="0.85253906"
     inkscape:cx="151.31271"
     inkscape:cy="217.58534"
     inkscape:window-width="1920"
     inkscape:window-height="1111"
     inkscape:window-x="2391"
     inkscape:window-y="-9"
     inkscape:window-maximized="1"
     inkscape:current-layer="g29" />
  <title
     id="title">Stakeholder logo with wordmark</title>
  <desc
     id="desc">A hub-and-spoke icon above the word stakeholder.</desc>
  <!-- Icon group -->
  <!-- Wordmark -->
  <g
     inkscape:groupmode="layer"
     id="g29"
     inkscape:label="stakeholder"
     transform="translate(-49.758697,-132.76524)">
    <path
       id="circle20"
       style="fill:#000000;fill-opacity:1;stroke:none;stroke-width:10;stroke-linecap:round;stroke-linejoin:round"
       d="m 130.7587,132.76524 c -12.6433,0 -23,10.3567 -23,23 0,10.9273 7.73765,20.1421 18,22.44336 v 24.51758 a 14,14 0 0 0 -5.14063,3.43164 l -25.210936,-10.4336 c 0.226116,-1.28744 0.351563,-2.60964 0.351563,-3.95898 0,-12.6433 -10.356699,-22.99999 -23,-23 -12.6433,0 -22.999999,10.3567 -23,23 0,12.64331 10.3567,23 23,23 7.746257,0 14.627166,-3.89129 18.800781,-9.81055 l 25.226562,10.4375 a 14,14 0 0 0 -0.0273,0.37305 14,14 0 0 0 1.13672,5.46875 l -32.480473,31.36133 c -3.637871,-2.41621 -7.989478,-3.83008 -12.65625,-3.83008 -12.6433,0 -23,10.3567 -23,23 0,12.64331 10.3567,23.00001 23,23 12.643301,0 23,-10.35669 23,-23 0,-4.37928 -1.244834,-8.48326 -3.394531,-11.97852 L 124.831,228.43907 a 14,14 0 0 0 5.92774,1.32617 14,14 0 0 0 5.92968,-1.32617 l 32.46485,31.3457 c -2.15057,3.49576 -3.39453,7.60023 -3.39453,11.98047 0,12.64331 10.3567,23 23,23 12.6433,0 23,-10.35669 23,-23 0,-12.6433 -10.3567,-23 -23,-23 -4.66581,0 -9.01884,1.41283 -12.65625,3.82813 l -32.47852,-31.35938 a 14,14 0 0 0 1.13477,-5.46875 14,14 0 0 0 -0.01,-0.37891 l 25.20703,-10.42968 c 4.17371,5.91853 11.05705,9.8086 18.80274,9.80859 12.6433,0 23,-10.35669 23,-23 0,-12.6433 -10.3567,-22.99999 -23,-23 -12.6433,0 -23,10.3567 -23,23 0,1.35001 0.12327,2.6729 0.34961,3.96094 l -25.18164,10.41992 a 14,14 0 0 0 -5.16797,-3.45313 v -24.48632 c 10.26121,-2.30213 18,-11.51492 18,-22.44141 0,-12.6433 -10.3567,-22.99999 -23,-23 z" />
  </g>
  <metadata
     id="metadata30">
    <rdf:RDF>
      <cc:Work
         rdf:about="">
        <dc:title>Stakeholder logo with wordmark</dc:title>
      </cc:Work>
    </rdf:RDF>
  </metadata>
</svg>
