<?xml version="1.0" encoding="UTF-8" standalone="no"?>
<svg
   width="783.88342"
   height="162"
   viewBox="0 0 783.88342 162"
   fill="none"
   role="img"
   aria-labelledby="title desc"
   version="1.1"
   id="svg10"
   sodipodi:docname="unioned_logo_with_wordmark.svg"
   inkscape:version="1.3 (0e150ed6c4, 2023-07-21)"
   xmlns:inkscape="http://www.inkscape.org/namespaces/inkscape"
   xmlns:sodipodi="http://sodipodi.sourceforge.net/DTD/sodipodi-0.dtd"
   xmlns="http://www.w3.org/2000/svg"
   xmlns:svg="http://www.w3.org/2000/svg"
   xmlns:rdf="http://www.w3.org/1999/02/22-rdf-syntax-ns#"
   xmlns:cc="http://creativecommons.org/ns#"
   xmlns:dc="http://purl.org/dc/elements/1.1/">
  <defs
     id="defs10" />
  <sodipodi:namedview
     id="namedview10"
     pagecolor="#ffffff"
     bordercolor="#000000"
     borderopacity="0.25"
     inkscape:showpageshadow="2"
     inkscape:pageopacity="0.0"
     inkscape:pagecheckerboard="0"
     inkscape:deskcolor="#d1d1d1"
     inkscape:zoom="3.4101562"
     inkscape:cx="102.34135"
     inkscape:cy="112.16495"
     inkscape:window-width="1920"
     inkscape:window-height="1111"
     inkscape:window-x="2391"
     inkscape:window-y="-9"
     inkscape:window-maximized="1"
     inkscape:current-layer="g29" />
  <title
     id="title">Stakeholder logo with wordmark</title>
  <desc
     id="desc">A hub-and-spoke icon above the word stakeholder.</desc>
  <!-- Icon group -->
  <!-- Wordmark -->
  <g
     inkscape:groupmode="layer"
     id="g29"
     inkscape:label="stakeholder"
     transform="translate(-49.758697,-132.76524)">
    <path
       id="circle20"
       style="fill:#000000;stroke:none;stroke-width:10;stroke-linecap:round;stroke-linejoin:round;fill-opacity:1"
       d="M 130.7587 132.76524 C 118.1154 132.76524 107.7587 143.12194 107.7587 155.76524 C 107.7587 166.69254 115.49635 175.90734 125.7587 178.2086 L 125.7587 202.72618 A 14 14 0 0 0 120.61807 206.15782 L 95.407134 195.72422 C 95.63325 194.43678 95.758697 193.11458 95.758697 191.76524 C 95.758697 179.12194 85.401998 168.76525 72.758697 168.76524 C 60.115397 168.76524 49.758698 179.12194 49.758697 191.76524 C 49.758697 204.40855 60.115397 214.76524 72.758697 214.76524 C 80.504954 214.76524 87.385863 210.87395 91.559478 204.95469 L 116.78604 215.39219 A 14 14 0 0 0 116.7587 215.76524 A 14 14 0 0 0 117.89542 221.23399 L 85.414947 252.59532 C 81.777076 250.17911 77.425469 248.76524 72.758697 248.76524 C 60.115397 248.76524 49.758697 259.12194 49.758697 271.76524 C 49.758697 284.40855 60.115397 294.76525 72.758697 294.76524 C 85.401998 294.76524 95.758697 284.40855 95.758697 271.76524 C 95.758697 267.38596 94.513863 263.28198 92.364166 259.78672 L 124.83096 228.43907 A 14 14 0 0 0 130.7587 229.76524 A 14 14 0 0 0 136.68838 228.43907 L 169.15323 259.78477 C 167.00266 263.28053 165.7587 267.385 165.7587 271.76524 C 165.7587 284.40855 176.1154 294.76524 188.7587 294.76524 C 201.402 294.76524 211.7587 284.40855 211.7587 271.76524 C 211.7587 259.12194 201.402 248.76524 188.7587 248.76524 C 184.09289 248.76524 179.73986 250.17807 176.10245 252.59337 L 143.62393 221.23399 A 14 14 0 0 0 144.7587 215.76524 A 14 14 0 0 0 144.74893 215.38633 L 169.95596 204.95665 C 174.12967 210.87518 181.01301 214.76525 188.7587 214.76524 C 201.402 214.76524 211.7587 204.40855 211.7587 191.76524 C 211.7587 179.12194 201.402 168.76525 188.7587 168.76524 C 176.1154 168.76524 165.7587 179.12194 165.7587 191.76524 C 165.7587 193.11525 165.88197 194.43814 166.10831 195.72618 L 140.92667 206.1461 A 14 14 0 0 0 135.7587 202.69297 L 135.7587 178.20665 C 146.01991 175.90452 153.7587 166.69173 153.7587 155.76524 C 153.7587 143.12194 143.402 132.76525 130.7587 132.76524 z " />
    <text
       xml:space="preserve"
       style="font-size:111.107px;font-family:'Segoe Script';-inkscape-font-specification:'Segoe Script';letter-spacing:0px;fill:#ffff00;stroke:none;stroke-width:3.84;stroke-linecap:round;stroke-linejoin:round;stroke-dasharray:none"
       x="239.85983"
       y="254.91498"
       id="text29"><tspan
         sodipodi:role="line"
         id="tspan29"
         x="239.85983"
         y="254.91498"
         style="font-style:normal;font-variant:normal;font-weight:normal;font-stretch:normal;font-family:'Roboto Black';-inkscape-font-specification:'Roboto Black, ';fill:#000000;stroke-width:3.84">stakeholder</tspan></text>
  </g>
  <metadata
     id="metadata30">
    <rdf:RDF>
      <cc:Work
         rdf:about="">
        <dc:title>Stakeholder logo with wordmark</dc:title>
      </cc:Work>
    </rdf:RDF>
  </metadata>
</svg>
